<svg xmlns="http://www.w3.org/2000/svg" aria-labeledby="svg-title-6378e296-98ba-47d6-adac-e90fbee9f229 svg-description-6378e296-98ba-47d6-adac-e90fbee9f229" fill="none" height="325" role="img" viewBox="0 0 1376 325" width="1376" data-hj-ignore-attributes=""> <title id="svg-title-6378e296-98ba-47d6-adac-e90fbee9f229" data-hj-ignore-attributes=""></title><desc id="svg-description-6378e296-98ba-47d6-adac-e90fbee9f229" data-hj-ignore-attributes=""></desc><g clip-path="url(#clip0_478_32473)" data-hj-ignore-attributes=""> <g clip-path="url(#clip1_478_32473)" data-hj-ignore-attributes=""> <rect fill="url(#paint0_linear_478_32473)" height="459" transform="translate(0 -54)" width="1376" data-hj-ignore-attributes=""></rect> <g clip-path="url(#clip2_478_32473)" opacity="0.75" style="mix-blend-mode:overlay" data-hj-ignore-attributes=""> <path clip-rule="evenodd" d="M1068.41 334.088L1068.41 319.186L1083.48 319.186L1083.48 334.088L1068.41 334.088Z" fill="#EFF0F1" fill-rule="evenodd" data-hj-ignore-attributes=""></path> <path clip-rule="evenodd" d="M1070.29 298.697L1070.29 288.452L1080.65 288.452L1080.65 298.697L1070.29 298.697Z" fill="#EFF0F1" fill-rule="evenodd" data-hj-ignore-attributes=""></path> <path clip-rule="evenodd" d="M1073.12 261.441L1073.12 256.785L1077.83 256.785L1077.83 261.441L1073.12 261.441Z" fill="#EFF0F1" fill-rule="evenodd" data-hj-ignore-attributes=""></path> <path clip-rule="evenodd" d="M1069.35 232.568L1069.35 219.529L1082.54 219.529L1082.54 232.568L1069.35 232.568Z" fill="#EFF0F1" fill-rule="evenodd" data-hj-ignore-attributes=""></path> <path clip-rule="evenodd" d="M1071.23 196.246L1071.23 187.864L1079.71 187.864L1079.71 196.246L1071.23 196.246Z" fill="#EFF0F1" fill-rule="evenodd" data-hj-ignore-attributes=""></path> <path clip-rule="evenodd" d="M1039.2 329.432L1039.2 323.843L1044.86 323.843L1044.86 329.432L1039.2 329.432Z" fill="#EFF0F1" fill-rule="evenodd" data-hj-ignore-attributes=""></path> <path clip-rule="evenodd" d="M1035.43 299.629L1035.43 286.59L1048.62 286.59L1048.62 299.629L1035.43 299.629Z" fill="#EFF0F1" fill-rule="evenodd" data-hj-ignore-attributes=""></path> <path clip-rule="evenodd" d="M1036.38 264.236L1036.38 253.991L1046.74 253.991L1046.74 264.236L1036.38 264.236Z" fill="#EFF0F1" fill-rule="evenodd" data-hj-ignore-attributes=""></path> <path clip-rule="evenodd" d="M1037.32 229.773L1037.32 221.391L1045.8 221.391L1045.8 229.773L1037.32 229.773Z" fill="#EFF0F1" fill-rule="evenodd" data-hj-ignore-attributes=""></path> <path clip-rule="evenodd" d="M1035.43 198.107L1035.43 186L1047.68 186L1047.68 198.107L1035.43 198.107Z" fill="#EFF0F1" fill-rule="evenodd" data-hj-ignore-attributes=""></path> <path clip-rule="evenodd" d="M1001.52 333.156L1001.52 321.048L1013.77 321.048L1013.77 333.156L1001.52 333.156Z" fill="#EFF0F1" fill-rule="evenodd" data-hj-ignore-attributes=""></path> <path clip-rule="evenodd" d="M1003.4 296.834L1003.4 289.383L1010.94 289.383L1010.94 296.834L1003.4 296.834Z" fill="#EFF0F1" fill-rule="evenodd" data-hj-ignore-attributes=""></path> <path clip-rule="evenodd" d="M1001.52 265.168L1001.52 253.992L1012.83 253.992L1012.83 265.168L1001.52 265.168Z" fill="#EFF0F1" fill-rule="evenodd" data-hj-ignore-attributes=""></path> <path clip-rule="evenodd" d="M1004.35 228.844L1004.35 223.256L1010 223.256L1010 228.844L1004.35 228.844Z" fill="#EFF0F1" fill-rule="evenodd" data-hj-ignore-attributes=""></path> <path clip-rule="evenodd" d="M1001.52 197.178L1001.52 186.001L1012.83 186.001L1012.83 197.178L1001.52 197.178Z" fill="#EFF0F1" fill-rule="evenodd" data-hj-ignore-attributes=""></path> </g> <g clip-path="url(#clip3_478_32473)" opacity="0.75" style="mix-blend-mode:overlay" data-hj-ignore-attributes=""> <path clip-rule="evenodd" d="M303.824 197.941L303.824 190.49L296.287 190.49L296.287 197.941L303.824 197.941Z" fill="#EFF0F1" fill-rule="evenodd" data-hj-ignore-attributes=""></path> <path clip-rule="evenodd" d="M305.709 166.273L305.709 155.097L294.404 155.097L294.404 166.273L305.709 166.273Z" fill="#EFF0F1" fill-rule="evenodd" data-hj-ignore-attributes=""></path> <path clip-rule="evenodd" d="M302.882 129.951L302.882 124.363L297.23 124.363L297.23 129.951L302.882 129.951Z" fill="#EFF0F1" fill-rule="evenodd" data-hj-ignore-attributes=""></path> <path clip-rule="evenodd" d="M302.882 95.4912L302.882 90.8344L298.172 90.8344L298.172 95.4912L302.882 95.4912Z" fill="#EFF0F1" fill-rule="evenodd" data-hj-ignore-attributes=""></path> <path clip-rule="evenodd" d="M302.882 265L302.882 259.412L297.23 259.412L297.23 265L302.882 265Z" fill="#EFF0F1" fill-rule="evenodd" data-hj-ignore-attributes=""></path> <path clip-rule="evenodd" d="M305.709 234.264L305.709 223.087L294.404 223.087L294.404 234.264L305.709 234.264Z" fill="#EFF0F1" fill-rule="evenodd" data-hj-ignore-attributes=""></path> <path clip-rule="evenodd" d="M304.766 63.8232L304.766 55.4409L296.287 55.4409L296.287 63.8232L304.766 63.8232Z" fill="#EFF0F1" fill-rule="evenodd" data-hj-ignore-attributes=""></path> <path clip-rule="evenodd" d="M307.594 33.0879L307.594 18.1859L292.52 18.1859L292.52 33.0879L307.594 33.0879Z" fill="#EFF0F1" fill-rule="evenodd" data-hj-ignore-attributes=""></path> <path clip-rule="evenodd" d="M338.681 198.873L338.681 190.491L330.202 190.491L330.202 198.873L338.681 198.873Z" fill="#EFF0F1" fill-rule="evenodd" data-hj-ignore-attributes=""></path> <path clip-rule="evenodd" d="M338.681 165.344L338.681 156.961L330.202 156.961L330.202 165.344L338.681 165.344Z" fill="#EFF0F1" fill-rule="evenodd" data-hj-ignore-attributes=""></path> <path clip-rule="evenodd" d="M336.797 129.951L336.797 124.363L331.144 124.363L331.144 129.951L336.797 129.951Z" fill="#EFF0F1" fill-rule="evenodd" data-hj-ignore-attributes=""></path> <path clip-rule="evenodd" d="M337.739 97.3535L337.739 89.9025L330.202 89.9025L330.202 97.3535L337.739 97.3535Z" fill="#EFF0F1" fill-rule="evenodd" data-hj-ignore-attributes=""></path> <path clip-rule="evenodd" d="M339.624 65.6865L339.624 54.5101L328.319 54.5101L328.319 65.6865L339.624 65.6865Z" fill="#EFF0F1" fill-rule="evenodd" data-hj-ignore-attributes=""></path> <path clip-rule="evenodd" d="M336.797 28.4316L336.797 22.8434L331.144 22.8434L331.144 28.4316L336.797 28.4316Z" fill="#EFF0F1" fill-rule="evenodd" data-hj-ignore-attributes=""></path> <path clip-rule="evenodd" d="M370.713 196.08L370.713 192.355L366.944 192.355L366.944 196.08L370.713 196.08Z" fill="#EFF0F1" fill-rule="evenodd" data-hj-ignore-attributes=""></path> <path clip-rule="evenodd" d="M370.713 163.48L370.713 158.824L366.002 158.824L366.002 163.48L370.713 163.48Z" fill="#EFF0F1" fill-rule="evenodd" data-hj-ignore-attributes=""></path> <path clip-rule="evenodd" d="M370.713 129.951L370.713 125.294L366.002 125.294L366.002 129.951L370.713 129.951Z" fill="#EFF0F1" fill-rule="evenodd" data-hj-ignore-attributes=""></path> <path clip-rule="evenodd" d="M372.596 97.3535L372.596 88.9712L364.117 88.9712L364.117 97.3535L372.596 97.3535Z" fill="#EFF0F1" fill-rule="evenodd" data-hj-ignore-attributes=""></path> <path clip-rule="evenodd" d="M371.655 62.8916L371.655 57.3034L366.002 57.3034L366.002 62.8916L371.655 62.8916Z" fill="#EFF0F1" fill-rule="evenodd" data-hj-ignore-attributes=""></path> <path clip-rule="evenodd" d="M374.479 32.1562L374.479 20.0484L362.232 20.0484L362.232 32.1562L374.479 32.1562Z" fill="#EFF0F1" fill-rule="evenodd" data-hj-ignore-attributes=""></path> </g> <path d="M507.11 239.981V252.853H501.525V219.88H513.764C515.234 219.859 516.691 220.121 518.058 220.646C519.307 221.122 520.446 221.832 521.419 222.743C522.358 223.633 523.09 224.723 523.566 225.923C524.56 228.503 524.56 231.359 523.566 233.938C523.083 235.146 522.351 236.229 521.419 237.125C520.46 238.036 519.328 238.746 518.092 239.216C516.718 239.712 515.262 239.961 513.799 239.933L507.103 239.974L507.11 239.981ZM512.929 235.056C514.434 235.139 515.925 234.663 517.091 233.711C517.602 233.242 517.995 232.662 518.258 232.021C518.52 231.379 518.637 230.689 518.603 229.993C518.637 229.296 518.52 228.592 518.258 227.944C517.995 227.296 517.602 226.709 517.091 226.226C515.938 225.233 514.447 224.716 512.929 224.798H507.11V235.028L512.929 235.063V235.056Z" fill="white" data-hj-ignore-attributes=""></path> <path d="M528.073 222.261C528.067 221.792 528.149 221.33 528.322 220.902C528.501 220.467 528.764 220.081 529.095 219.75C529.413 219.419 529.799 219.157 530.22 218.984C530.648 218.805 531.104 218.722 531.559 218.729C532.022 218.729 532.484 218.812 532.919 218.984C533.354 219.157 533.741 219.419 534.072 219.75C534.403 220.081 534.659 220.474 534.838 220.902C535.011 221.336 535.1 221.792 535.094 222.261C535.107 222.723 535.018 223.178 534.845 223.606C534.666 224.034 534.403 224.42 534.072 224.737C533.741 225.068 533.354 225.324 532.919 225.496C532.484 225.668 532.022 225.751 531.559 225.737C531.104 225.744 530.648 225.662 530.22 225.489C529.799 225.317 529.413 225.061 529.088 224.737C528.757 224.42 528.495 224.034 528.315 223.606C528.136 223.178 528.053 222.716 528.067 222.261H528.073ZM528.909 252.861V230.207H534.265V252.861H528.909Z" fill="white" data-hj-ignore-attributes=""></path> <path d="M546.359 252.861H540.961V230.207H546.214V233.235C546.877 232.008 547.912 231.028 549.168 230.414C550.321 229.876 551.571 229.586 552.841 229.559C554.111 229.531 555.374 229.773 556.541 230.255C557.521 230.69 558.39 231.352 559.074 232.18C559.757 233.029 560.275 234.001 560.592 235.043C560.938 236.174 561.11 237.354 561.103 238.533V252.84H555.705V239.464C555.747 238.188 555.381 236.94 554.663 235.891C553.945 234.919 552.758 234.463 551.087 234.463C550.418 234.422 549.748 234.539 549.141 234.808C548.526 235.077 547.988 235.491 547.574 236.015C546.766 237.112 546.352 238.444 546.393 239.809L546.366 252.868L546.359 252.861Z" fill="white" data-hj-ignore-attributes=""></path> <path d="M571.105 252.805C571.264 254.143 571.899 255.385 572.893 256.295C573.956 257.247 575.351 257.744 576.78 257.689C581.073 257.689 583.22 255.426 583.22 250.901V248.528C582.647 249.508 581.819 250.308 580.825 250.853C579.548 251.55 578.112 251.888 576.655 251.832C575.261 251.853 573.873 251.584 572.583 251.046C571.292 250.508 570.132 249.708 569.166 248.694C568.213 247.687 567.468 246.5 566.978 245.203C566.446 243.803 566.177 242.313 566.191 240.809C566.177 239.347 566.439 237.884 566.957 236.518C567.447 235.229 568.172 234.049 569.104 233.035C570.063 231.993 571.23 231.166 572.534 230.6C573.839 230.041 575.24 229.758 576.662 229.779C578.153 229.717 579.63 230.041 580.956 230.731C581.963 231.269 582.792 232.083 583.351 233.076V230.214H588.563V250.715C588.563 252.198 588.355 253.667 587.934 255.088C587.534 256.454 586.858 257.723 585.939 258.806C584.959 259.938 583.738 260.828 582.364 261.407C580.645 262.104 578.802 262.435 576.945 262.38C575.544 262.393 574.156 262.173 572.831 261.731C571.637 261.331 570.519 260.731 569.525 259.965C567.675 258.53 566.467 256.427 566.156 254.109L571.112 252.805H571.105ZM577.546 247.224C578.333 247.252 579.113 247.114 579.844 246.811C580.569 246.507 581.225 246.052 581.756 245.479C582.875 244.189 583.448 242.513 583.358 240.809C583.372 239.912 583.22 239.029 582.923 238.181C582.654 237.436 582.24 236.746 581.708 236.16C581.197 235.608 580.569 235.166 579.879 234.877C579.14 234.58 578.346 234.428 577.553 234.442C576.766 234.415 575.972 234.552 575.24 234.849C574.508 235.146 573.846 235.594 573.294 236.16C572.728 236.787 572.286 237.519 572.003 238.319C571.72 239.119 571.596 239.961 571.637 240.809C571.54 242.527 572.127 244.217 573.266 245.507C573.818 246.079 574.481 246.521 575.213 246.817C575.944 247.114 576.738 247.252 577.525 247.224H577.546V247.224Z" fill="white" data-hj-ignore-attributes=""></path> <path d="M593.947 236.34C593.905 233.857 594.382 231.394 595.341 229.111C596.211 227.083 597.474 225.248 599.062 223.717C600.608 222.254 602.423 221.109 604.418 220.35C608.463 218.805 612.936 218.805 616.981 220.35C618.969 221.109 620.785 222.254 622.331 223.717C623.925 225.248 625.196 227.083 626.072 229.111C627.97 233.753 627.97 238.955 626.072 243.597C625.202 245.632 623.925 247.474 622.331 249.012C620.785 250.475 618.969 251.627 616.981 252.385C612.936 253.93 608.463 253.93 604.418 252.385C602.389 251.613 600.539 250.433 598.972 248.922C597.412 247.412 596.176 245.598 595.341 243.59C594.382 241.293 593.905 238.824 593.947 236.34ZM599.676 236.34C599.635 238.12 599.959 239.893 600.629 241.548C601.202 242.942 602.051 244.204 603.12 245.266C604.121 246.246 605.316 247.005 606.627 247.495C607.932 247.977 609.312 248.219 610.7 248.212C612.094 248.219 613.482 247.977 614.793 247.495C616.118 247.005 617.32 246.246 618.327 245.266C619.397 244.204 620.246 242.942 620.819 241.548C622.089 238.196 622.089 234.492 620.819 231.132C620.246 229.739 619.397 228.476 618.327 227.414C617.32 226.428 616.112 225.669 614.793 225.179C613.482 224.696 612.094 224.455 610.7 224.462C609.312 224.455 607.932 224.696 606.627 225.179C605.316 225.669 604.121 226.428 603.12 227.414C602.051 228.476 601.202 229.739 600.629 231.132C599.959 232.788 599.635 234.56 599.676 236.34V236.34Z" fill="white" data-hj-ignore-attributes=""></path> <path d="M638.29 252.861H632.892V230.207H638.145V233.235C638.808 232.008 639.843 231.028 641.1 230.414C642.252 229.876 643.502 229.586 644.772 229.559C646.042 229.531 647.305 229.773 648.472 230.255C649.452 230.69 650.322 231.352 651.005 232.18C651.688 233.029 652.199 234.001 652.524 235.043C652.869 236.174 653.041 237.354 653.035 238.533V252.84H647.637V239.464C647.678 238.188 647.312 236.94 646.594 235.891C645.89 234.939 644.703 234.463 643.019 234.463C642.349 234.422 641.679 234.539 641.072 234.808C640.465 235.077 639.919 235.491 639.505 236.015C638.697 237.112 638.283 238.444 638.325 239.809L638.297 252.868L638.29 252.861Z" fill="white" data-hj-ignore-attributes=""></path> <path d="M679.879 246.418C679.569 247.411 679.113 248.349 678.526 249.204C677.94 250.08 677.215 250.846 676.38 251.488C675.475 252.157 674.468 252.674 673.398 253.019C672.197 253.405 670.94 253.592 669.684 253.578C668.172 253.585 666.667 253.309 665.259 252.764C663.886 252.24 662.636 251.432 661.587 250.398C660.496 249.308 659.634 248.011 659.047 246.583C658.384 244.955 658.067 243.203 658.094 241.451C658.067 239.775 658.377 238.119 659.005 236.567C659.565 235.174 660.393 233.904 661.449 232.828C662.457 231.8 663.658 230.979 664.983 230.414C666.288 229.848 667.703 229.552 669.125 229.558C670.719 229.531 672.307 229.821 673.798 230.393C675.123 230.91 676.311 231.724 677.284 232.759C678.25 233.828 678.982 235.091 679.431 236.457C679.935 238.022 680.176 239.664 680.149 241.313C680.149 241.747 680.149 242.127 680.1 242.451C680.093 242.651 680.059 242.844 680.011 243.037H663.465C663.485 243.858 663.672 244.665 664.024 245.403C664.355 246.1 664.811 246.735 665.377 247.266C665.936 247.797 666.585 248.211 667.303 248.494C668.048 248.797 668.849 248.942 669.656 248.935C671.016 249.025 672.362 248.618 673.446 247.797C674.323 247.052 674.978 246.079 675.337 244.983L679.9 246.418H679.879ZM674.709 239.071C674.682 238.429 674.544 237.795 674.316 237.188C674.081 236.588 673.729 236.043 673.273 235.587C672.776 235.105 672.19 234.725 671.548 234.47C670.775 234.173 669.953 234.028 669.132 234.049C668.359 234.035 667.592 234.187 666.875 234.491C666.24 234.76 665.66 235.153 665.176 235.649C664.714 236.125 664.334 236.677 664.051 237.277C663.789 237.836 663.63 238.443 663.596 239.064H674.709V239.071Z" fill="white" data-hj-ignore-attributes=""></path> <path clip-rule="evenodd" d="M814.29 202.476C825.576 202.476 835.868 199.689 844.593 194.695C836.276 188.162 825.79 184.258 814.408 184.258C803.025 184.258 792.519 188.169 784.194 194.722C792.871 199.703 803.101 202.476 814.29 202.476Z" fill="url(#paint1_linear_478_32473)" fill-rule="evenodd" data-hj-ignore-attributes=""></path> <path d="M652.468 133.336C653.407 121.181 663.23 104.294 680.307 104.294C699.021 104.294 707.912 120.008 708.381 133.336H652.468ZM711.418 159.231C707.677 170.454 699.255 179.105 682.875 179.105C666.495 179.105 652.462 170.51 651.764 153.209H735.046C735.281 152.74 735.75 145.207 735.75 140.765C735.75 104.763 715.166 81.6201 680.073 81.6201C651.295 81.6201 624.63 105.467 624.63 141.468C624.63 180.043 651.999 202.483 682.882 202.483C710.252 202.483 728.268 186.355 734.349 166.481L711.425 159.231H711.418Z" fill="white" data-hj-ignore-attributes=""></path> <path d="M548.595 83.1377C520.584 83.1377 501.525 103.377 501.525 128.534V200.958H528.826V134.901C528.826 119.905 537.013 107.93 552.475 107.874C567.937 107.93 576.124 119.905 576.124 134.901V200.958H603.424V128.534C603.424 103.377 584.338 83.1377 556.354 83.1377H548.595V83.1377Z" fill="white" data-hj-ignore-attributes=""></path> <path clip-rule="evenodd" d="M772.584 185.844C780.467 178.877 790.096 173.842 800.726 171.489C789.62 166.329 781.916 155.085 781.916 142.041C781.916 124.113 796.46 109.578 814.401 109.578C832.341 109.578 846.885 124.113 846.885 142.041C846.885 155.085 839.182 166.329 828.075 171.489C838.698 173.842 848.321 178.87 856.204 185.831C867.021 175.049 873.468 159.728 873.468 141.931C873.468 107.095 848.438 81.6133 814.283 81.6133C780.128 81.6133 755.334 107.095 755.334 141.931C755.334 159.735 761.788 175.062 772.584 185.844V185.844Z" fill="white" fill-rule="evenodd" data-hj-ignore-attributes=""></path> </g> </g> <defs data-hj-ignore-attributes=""> <linearGradient gradientUnits="userSpaceOnUse" id="paint0_linear_478_32473" x1="1.04886e-05" x2="1380.61" y1="459" y2="77.3997" data-hj-ignore-attributes=""> <stop stop-color="#051727" data-hj-ignore-attributes=""></stop> <stop offset="1" stop-color="#250621" data-hj-ignore-attributes=""></stop> </linearGradient> <linearGradient gradientUnits="userSpaceOnUse" id="paint1_linear_478_32473" x1="787.549" x2="842.998" y1="190.99" y2="195.991" data-hj-ignore-attributes=""> <stop stop-color="#F47E2B" data-hj-ignore-attributes=""></stop> <stop offset="0.15" stop-color="#F1772C" data-hj-ignore-attributes=""></stop> <stop offset="0.29" stop-color="#E8642E" data-hj-ignore-attributes=""></stop> <stop offset="0.45" stop-color="#EF3820" data-hj-ignore-attributes=""></stop> <stop offset="0.87" stop-color="#B3282D" data-hj-ignore-attributes=""></stop> </linearGradient> <clipPath id="clip0_478_32473" data-hj-ignore-attributes=""> <rect fill="white" height="325" width="1376" data-hj-ignore-attributes=""></rect> </clipPath> <clipPath id="clip1_478_32473" data-hj-ignore-attributes=""> <rect fill="white" height="459" transform="translate(0 -54)" width="1376" data-hj-ignore-attributes=""></rect> </clipPath> <clipPath id="clip2_478_32473" data-hj-ignore-attributes=""> <rect fill="white" height="126" transform="translate(1105 176) rotate(90)" width="400" data-hj-ignore-attributes=""></rect> </clipPath> <clipPath id="clip3_478_32473" data-hj-ignore-attributes=""> <rect fill="white" height="126" transform="matrix(1.19249e-08 1 1 -1.19249e-08 271 -125)" width="400" data-hj-ignore-attributes=""></rect> </clipPath> </defs> </svg>